<?xml version="1.0"?>
<svg xmlns="http://www.w3.org/2000/svg" height="512px" viewBox="0 -68 512 511" width="512px" class=""><g transform="matrix(1 0 0 1 0 0)"><path d="m271.582031 195.179688h-33.03125c-6.566406 0-11.890625 5.324218-11.890625 11.890624 0 6.566407 5.324219 11.890626 11.890625 11.890626h33.03125c6.566407 0 11.890625-5.324219 11.890625-11.890626 0-6.566406-5.324218-11.890624-11.890625-11.890624zm0 0" fill="#5c5e71" data-original="#5C5E71" class="active-path" style="fill:#5C5E71"/><path d="m243.3125 246.09375c-4.199219 0-7.605469-3.40625-7.605469-7.605469v-24.597656c0-4.199219 3.40625-7.601563 7.605469-7.601563s7.605469 3.402344 7.605469 7.601563v24.597656c0 4.199219-3.40625 7.605469-7.605469 7.605469zm0 0" fill="#3b3d4d" data-original="#3B3D4D" class=""/><path d="m215.914062 264.523438c0 57.523437-46.632812 104.15625-104.15625 104.15625-57.523437 0-104.152343-46.632813-104.152343-104.15625 0-57.523438 46.628906-104.15625 104.152343-104.15625 57.523438 0 104.15625 46.632812 104.15625 104.15625zm0 0" fill="#e5e5e5" data-original="#E5E5E5" class=""/><path d="m111.757812 376.28125c-61.621093 0-111.757812-50.132812-111.757812-111.757812s50.136719-111.757813 111.757812-111.757813c61.625 0 111.761719 50.132813 111.761719 111.757813s-50.136719 111.757812-111.761719 111.757812zm0-208.308594c-53.238281 0-96.550781 43.3125-96.550781 96.550782 0 53.238281 43.3125 96.550781 96.550781 96.550781 53.238282 0 96.550782-43.3125 96.550782-96.550781 0-53.238282-43.3125-96.550782-96.550782-96.550782zm0 0" fill="#3b3d4d" data-original="#3B3D4D" class=""/><path d="m375.746094 163.265625c7.859375-1.898437 16.0625-2.902344 24.496094-2.902344 57.515624 0 104.152343 46.640625 104.152343 104.15625 0 57.523438-46.636719 104.160157-104.152343 104.160157-57.527344 0-104.164063-46.636719-104.164063-104.160157 0-38.292969 20.671875-71.761719 51.472656-89.859375" fill="#e5e5e5" data-original="#E5E5E5" class=""/><path d="m400.242188 376.285156c-61.628907 0-111.765626-50.136718-111.765626-111.765625 0-39.457031 21.160157-76.402343 55.222657-96.414062 3.621093-2.128907 8.28125-.917969 10.410156 2.703125s.917969 8.28125-2.703125 10.40625c-29.4375 17.296875-47.722656 49.214844-47.722656 83.304687 0 53.242188 43.316406 96.558594 96.558594 96.558594 53.238281 0 96.550781-43.316406 96.550781-96.558594 0-53.238281-43.3125-96.550781-96.550781-96.550781-7.675782 0-15.320313.902344-22.710938 2.6875-4.082031.984375-8.1875-1.527344-9.175781-5.609375-.984375-4.078125 1.527343-8.1875 5.609375-9.171875 8.558594-2.066406 17.398437-3.113281 26.277344-3.113281 61.625 0 111.757812 50.132812 111.757812 111.757812 0 61.628907-50.132812 111.765625-111.757812 111.765625zm0 0" fill="#3b3d4d" data-original="#3B3D4D" class=""/><path d="m111.757812 303.8125 134.003907-13.253906c13.386719-1.324219 23.585937-12.582032 23.585937-26.035156 0-13.449219-10.199218-24.710938-23.585937-26.035157l-134.003907-13.253906" fill="#cbcbcb" data-original="#CBCBCB"/><path d="m252.46875 166.957031-36.46875-51.699219h83.457031zm-112.085938 70.652344 4.074219-9.144531 44.183594-99.226563 49.902344 70.738281c2.65625 3.769532 6.882812 6.132813 11.488281 6.417969 4.613281.28125 9.09375-1.542969 12.195312-4.949219l66.558594-73.238281 57.355469 142.007813c2.382813 5.921875 8.078125 9.519531 14.101563 9.519531 1.894531 0 3.824218-.351563 5.6875-1.113281 7.789062-3.144532 11.558593-12.003906 8.40625-19.789063l-66.175782-163.871093c-.132812-.363282-.261718-.710938-.425781-1.066407-.007813-.027343-.019531-.050781-.03125-.078125l-25.40625-62.902344h67.867187c6.976563 0 12.652344 5.679688 12.652344 12.65625 0 6.972657-5.675781 12.640626-12.652344 12.640626h-7.371093c-8.402344 0-15.207031 6.8125-15.207031 15.207031 0 8.40625 6.804687 15.210937 15.207031 15.210937h7.371093c23.746094 0 43.070313-19.316406 43.070313-43.058594 0-23.746093-19.324219-43.070312-43.070313-43.070312h-90.40625c-5.058593 0-9.78125 2.515625-12.609374 6.703125-2.828126 4.195313-3.386719 9.519531-1.492188 14.203125l25.621094 63.4375h-116.734375l-15.554688-22.050781h-37.21875l26.460938 37.519531-55.628907 124.929688-.03125.070312" fill="#4297d0" data-original="#4297D0" class="" style="fill:#FF5E00" data-old_color="#FF4700"/><g fill="#1876a9"><path d="m312.011719 115.257812h-12.554688l-46.988281 51.699219 5.484375 7.773438zm0 0" data-original="#000000" class="" style="fill:#BB4F02" data-old_color="#A74504"/><path d="m398.691406 270.214844-74.863281-185.371094-25.617187-63.4375c-1.898438-4.683594-1.339844-10.007812 1.488281-14.203125 2.828125-4.1875 7.554687-6.703125 12.613281-6.703125h-12.550781c-5.058594 0-9.785157 2.515625-12.613281 6.703125-2.828126 4.195313-3.386719 9.519531-1.492188 14.203125l25.621094 63.4375 74.863281 185.371094c2.382813 5.921875 8.082031 9.519531 14.101563 9.519531 1.898437 0 3.824218-.351563 5.6875-1.113281.195312-.078125.375-.175782.5625-.261719-3.425782-1.558594-6.285157-4.378906-7.800782-8.144531zm0 0" data-original="#000000" class="" style="fill:#BB4F02" data-old_color="#A74504"/><path d="m125.125 225.3125.027344-.070312 55.632812-124.929688-26.464844-37.519531h-12.550781l26.460938 37.519531-55.628907 124.929688-.03125.070312 27.8125 12.300781 2.066407-4.640625zm0 0" data-original="#000000" class="" style="fill:#BB4F02" data-old_color="#A74504"/><path d="m251.09375 199.976562-57.59375-81.644531-4.859375 10.910157 49.902344 70.734374c2.65625 3.773438 6.882812 6.132813 11.488281 6.417969 2.511719.15625 4.976562-.335937 7.210938-1.347656-2.433594-1.105469-4.570313-2.832031-6.148438-5.070313zm0 0" data-original="#000000" class="" style="fill:#BB4F02" data-old_color="#A74504"/></g><path d="m154.648438 264.523438c0 23.6875-19.203126 42.890624-42.890626 42.890624s-42.886718-19.203124-42.886718-42.890624 19.199218-42.890626 42.886718-42.890626 42.890626 19.203126 42.890626 42.890626zm0 0" fill="#5c5e71" data-original="#5C5E71" class="active-path" style="fill:#5C5E71"/><path d="m124.332031 264.523438c0 6.941406-5.628906 12.570312-12.574219 12.570312-6.941406 0-12.570312-5.628906-12.570312-12.570312 0-6.941407 5.628906-12.570313 12.570312-12.570313 6.945313 0 12.574219 5.628906 12.574219 12.570313zm0 0" fill="#cbcbcb" data-original="#CBCBCB"/><path d="m390.164062.5h-18.175781v30.414062h18.175781c6.976563 0 12.652344 5.679688 12.652344 12.65625 0 6.972657-5.675781 12.640626-12.652344 12.640626h-7.371093c-8.402344 0-15.207031 6.8125-15.207031 15.207031 0 8.40625 6.804687 15.210937 15.207031 15.210937h7.371093c23.746094 0 43.070313-19.316406 43.070313-43.058594 0-23.746093-19.324219-43.070312-43.070313-43.070312zm0 0" fill="#5c5e71" data-original="#5C5E71" class="active-path" style="fill:#5C5E71"/><path d="m246.507812 230.921875-133.960937-13.25c-.007813 0-.011719 0-.019531-.003906h-.019532c-.121093-.011719-.242187-.011719-.363281-.015625-.128906-.007813-.253906-.019532-.382812-.019532-.003907 0-.007813 0-.011719 0-.019531 0-.039062 0-.058594 0-25.824218.039063-46.824218 21.058594-46.824218 46.890626 0 25.84375 21.011718 46.867187 46.851562 46.890624h.03125c.25 0 .503906-.011718.757812-.035156l.019532-.003906h.019531l133.960937-13.25c17.355469-1.714844 30.441407-16.160156 30.441407-33.601562 0-17.441407-13.085938-31.886719-30.441407-33.601563zm-1.496093 52.070313-133.550781 13.207031c-17.332032-.160157-31.386719-14.304688-31.386719-31.675781 0-17.371094 14.054687-31.515626 31.386719-31.675782l133.550781 13.207032c9.539062.945312 16.730469 8.882812 16.730469 18.46875 0 9.585937-7.191407 17.523437-16.730469 18.46875zm0 0" fill="#3b3d4d" data-original="#3B3D4D" class=""/><path d="m243.308594 326.3125c-4.199219 0-7.605469-3.40625-7.605469-7.605469v-54.1875c0-4.199219 3.40625-7.605469 7.605469-7.605469 4.199218 0 7.601562 3.40625 7.601562 7.605469v54.1875c0 4.199219-3.402344 7.605469-7.601562 7.605469zm0 0" fill="#3b3d4d" data-original="#3B3D4D" class=""/><path d="m212.328125 45.214844c0 9.703125-7.867187 17.570312-17.570313 17.570312h-62.230468c-14.5 0-26.25-11.75-26.25-26.238281v-11.152344c0-9.894531 9.246094-17.183593 18.867187-14.882812l9.703125 2.320312 63.996094 15.289063c3.953125.953125 7.320312 3.183594 9.710938 6.207031 2.371093 3.019531 3.773437 6.824219 3.773437 10.886719zm0 0" fill="#3b3d4d" data-original="#3B3D4D" class=""/><path d="m212.328125 45.214844c0 9.703125-7.867187 17.570312-17.570313 17.570312h-40.230468c-14.5 0-26.25-11.75-26.25-26.238281v-11.152344c0-5.28125 2.636718-9.832031 6.570312-12.5625l63.996094 15.289063c3.953125.953125 7.320312 3.183594 9.710938 6.207031 2.371093 3.019531 3.773437 6.824219 3.773437 10.886719zm0 0" fill="#5c5e71" data-original="#5C5E71" class="active-path" style="fill:#5C5E71"/><path d="m262.960938 318.710938h-33.027344c-6.566406 0-11.890625 5.324218-11.890625 11.890624 0 6.570313 5.324219 11.890626 11.890625 11.890626h33.027344c6.570312 0 11.890624-5.320313 11.890624-11.890626 0-6.566406-5.320312-11.890624-11.890624-11.890624zm0 0" fill="#5c5e71" data-original="#5C5E71" class="active-path" style="fill:#5C5E71"/></g> </svg>
