<?xml version="1.0" encoding="iso-8859-1"?>
<!-- Generator: Adobe Illustrator 19.0.0, SVG Export Plug-In . SVG Version: 6.00 Build 0)  -->
<svg version="1.1" id="Capa_1" xmlns="http://www.w3.org/2000/svg" xmlns:xlink="http://www.w3.org/1999/xlink" x="0px" y="0px"
	 viewBox="0 0 511.548 511.548" style="enable-background:new 0 0 511.548 511.548;" xml:space="preserve">
<g>
	<path style="fill:#E64C3C;" d="M502.77,200.51v172.05c0.025,4.779-1.886,9.364-5.297,12.712l-3.708,3.708v32.926
		c-0.002,1.71-0.091,3.419-0.265,5.12c-0.169,2.28-0.464,4.549-0.883,6.797c-0.441,2.207-0.971,4.502-1.589,6.709
		c-1.392,5.121-3.223,10.112-5.472,14.919c-0.884,1.854-1.854,3.708-2.737,5.561c-0.353,0.618-0.707,1.324-1.059,1.942
		c-1.412,2.472-2.913,4.943-4.414,7.327c-0.088,0.177-0.264,0.353-0.352,0.53c-2.207,3.178-4.502,6.356-6.885,9.357
		c-0.12,0.197-0.269,0.376-0.441,0.53c-0.883,1.059-1.854,2.207-2.825,3.266c-1.854,2.119-3.884,4.149-5.914,6.179
		c-2.03,1.942-4.149,3.796-6.268,5.561c-1.149,0.883-2.207,1.677-3.356,2.56c-0.1,0.109-0.22,0.199-0.352,0.265
		c-1.943,1.412-3.973,2.737-6.092,4.061c-4.697,2.865-9.74,5.12-15.007,6.709c-1.148,0.265-2.295,0.617-3.443,0.883
		c-1.236,0.265-2.471,0.53-3.708,0.706c-2.508,0.425-5.047,0.632-7.59,0.618c-6.307,0.007-12.552-1.254-18.362-3.708
		c0,0-3.178-1.324-8.828-3.708h-0.088c-14.741-6.268-46.698-19.774-85.804-36.281C192.216,421.464,26.256,351.462,26.256,351.462
		c-7.63-3.223-13.489-9.594-16.062-17.467c-2.573-7.873-1.609-16.474,2.644-23.582l6.886-11.388l10.062-16.861
		c3.799-6.279,4.853-13.843,2.914-20.921l-1.324-4.943c-14.508-53.278-8.883-110.033,15.801-159.426l1.678-3.443
		c3.137-6.16,3.922-13.253,2.207-19.95c-3.646-14.494,4.35-29.379,18.448-34.339l28.69-10.24l27.72-9.975
		c29.526-10.531,60.417-16.745,91.718-18.45c9.888-0.53,19.774-0.618,29.573-0.265c64.058,2.22,126.045,23.25,178.228,60.469
		c14.494,10.364,26.298,24.045,34.428,39.901c0.024,0,0.046,0.009,0.063,0.025c0.017,0.017,0.026,0.039,0.025,0.063
		c3.544,6.896,6.355,14.145,8.386,21.628l1.766,6.444l7.415,27.012l7.327,26.836C494.731,182.628,502.732,190.629,502.77,200.51z"/>
	<path style="fill:#C03A2B;" d="M470.108,128.742l-40.519-0.265c-4.874-0.055-8.905,3.78-9.092,8.651l-57.203-25.335l-12.888-5.738
		c-6.225-2.774-11.547-7.239-15.36-12.888l-12.446-18.803c-1.823-2.717-2.02-6.213-0.513-9.117c1.507-2.905,4.478-4.756,7.75-4.83
		c1.373-0.004,2.731,0.297,3.973,0.883l87.835,40.519h35.928l2.295-1.236c0.024,0,0.046,0.009,0.063,0.025
		c0.017,0.017,0.026,0.039,0.025,0.063c3.544,6.896,6.355,14.145,8.386,21.628L470.108,128.742z"/>
	<path style="fill:#8697CB;" d="M300.706,307.235l97.015,72.474l-118.819-45.639h-0.177l-8.387-3.354
		c-16.003-6.164-31.499-13.573-46.345-22.157l0.177-0.353c0,0-24.893-76.712-24.893-79.007c0-2.913,25.6-59.145,25.6-59.145
		l30.278,6.091c24.44,5.168,49.278,8.24,74.241,9.181h72.916l-82.273,21.892c-20.955,5.589-36.875,22.66-40.991,43.953
		S283.343,294.239,300.706,307.235L300.706,307.235z"/>
	<path style="fill:#B0D3F0;" d="M502.77,200.51v172.05c0.025,4.779-1.886,9.364-5.297,12.712l-3.708,3.708H443.36
		c-14.306-0.006-28.488-2.639-41.843-7.768l-3.796-1.501l-97.015-72.475c-17.362-12.996-25.773-34.77-21.657-56.063
		s20.035-38.364,40.99-43.953l82.273-21.892h91.63l0.088-0.177C499.448,188.371,502.768,194.207,502.77,200.51L502.77,200.51z"/>
	<path style="fill:#8697CB;" d="M477.523,155.754l-42.284-0.265c-3.011-0.053-5.795-1.611-7.415-4.149l-5.826-9.004
		c-1.069-1.519-1.598-3.353-1.501-5.208c0.187-4.871,4.219-8.706,9.092-8.651l40.519,0.265L477.523,155.754z"/>
	<circle style="fill:#E6E7E8;" cx="251.113" cy="272.313" r="8.978"/>
	<g>
		<path style="fill:#802F34;" d="M363.294,111.793l-115.288,24.629c-3.795,0.776-7.737,0.376-11.299-1.148l-23.04-10.505
			c-46.039-20.933-85.744-53.635-115.112-94.808l-0.353-1.059l27.72-9.975c29.526-10.531,60.416-16.745,91.717-18.45
			c9.888-0.53,19.774-0.618,29.573-0.265l82.625,60.116v0.088c-3.272,0.074-6.243,1.925-7.75,4.83
			c-1.507,2.905-1.311,6.4,0.513,9.117l12.446,18.803c3.813,5.649,9.135,10.115,15.36,12.888L363.294,111.793z"/>
		<path style="fill:#802F34;" d="M338.048,403.897l-37.341,18.538c-2.893,1.578-6.439,1.337-9.092-0.618l-75.299-52.436
			C143.403,318.706,78.479,257.412,23.696,187.533c1.347-31.537,9.349-62.433,23.481-90.659l1.678-3.443
			c3.137-6.16,3.922-13.253,2.207-19.95c-3.646-14.494,4.35-29.379,18.448-34.339l28.69-10.24l0.353,1.059l4.59,13.771
			c14.498,43.704,41.661,82.112,78.037,110.345l12.535,9.799l-17.92-3.619c-18.243-3.607-36.786,4.627-46.345,20.578
			c-9.559,15.951-8.075,36.186,3.708,50.573c18.044,22.158,38.906,41.863,62.057,58.615c9.254,6.69,18.861,12.878,28.778,18.538
			c14.846,8.585,30.342,15.993,46.345,22.157l8.387,3.354h0.177l61.176,55.084c2.191,2.006,3.258,4.96,2.852,7.904
			S340.7,402.558,338.048,403.897z"/>
	</g>
	<path style="fill:#556080;" d="M224.877,170.055l-0.707,3.531v14.477c0.001,13.379-6.692,25.871-17.832,33.28
		c-2.233,1.508-3.675,3.935-3.931,6.617c-0.256,2.682,0.7,5.339,2.608,7.242l8.651,8.651c6.727,6.751,10.505,15.893,10.504,25.423
		v38.93l-0.177,0.353c-9.917-5.66-19.524-11.848-28.778-18.538c-23.151-16.752-44.013-36.457-62.058-58.615
		c-11.781-14.387-13.263-34.62-3.705-50.571c9.558-15.95,28.1-24.184,46.342-20.58l17.92,3.619L224.877,170.055z"/>
	<g>
		<circle style="fill:#E6E7E8;" cx="170.332" cy="209.496" r="17.946"/>
		<path style="fill:#E6E7E8;" d="M197.244,267.775c-0.572-0.032-1.136-0.151-1.672-0.353c-0.536-0.217-1.018-0.548-1.414-0.97
			c-0.861-0.795-1.343-1.919-1.328-3.091c-0.021-0.579,0.1-1.155,0.353-1.677c0.209-0.566,0.542-1.079,0.974-1.5
			c1.28-1.2,3.142-1.545,4.767-0.884c0.53,0.189,1.012,0.49,1.414,0.884c0.433,0.419,0.763,0.932,0.966,1.5
			c0.253,0.522,0.374,1.097,0.353,1.677c0.015,1.17-0.464,2.292-1.319,3.091c-0.397,0.42-0.879,0.751-1.414,0.97
			C198.387,267.631,197.819,267.751,197.244,267.775L197.244,267.775z"/>
	</g>
	<path style="fill:#802F34;" d="M492.618,433.823c-7.768,41.49-53.23,91.984-95.868,73.975c0,0-3.178-1.324-8.916-3.708
		l12.094-9.799c19.828-15.828,33.428-38.15,38.4-63.029l0.884-4.679l16.683,6.621c1.067,0.425,2.207,0.635,3.356,0.618H492.618z"/>
	<path style="fill:#C03A2B;" d="M493.765,388.979v32.662c-0.004,4.087-0.389,8.166-1.148,12.182H459.25
		c-1.148,0.018-2.289-0.192-3.356-0.618l-16.683-6.621l-20.922-8.386c-3.397-1.406-5.622-4.71-5.649-8.386V384.83
		c10.009,2.75,20.341,4.145,30.72,4.149H493.765z"/>
	<path style="fill:#556080;" d="M302.03,467.809C192.216,421.464,26.256,351.462,26.256,351.462
		c-7.63-3.223-13.489-9.594-16.062-17.467c-2.573-7.873-1.609-16.474,2.644-23.582l6.886-11.388l5.208,4.149
		c18.97,15.153,40.751,26.404,64.088,33.103c18.214,5.233,35.513,13.243,51.288,23.746L302.03,467.809z"/>
</g>
<g>
</g>
<g>
</g>
<g>
</g>
<g>
</g>
<g>
</g>
<g>
</g>
<g>
</g>
<g>
</g>
<g>
</g>
<g>
</g>
<g>
</g>
<g>
</g>
<g>
</g>
<g>
</g>
<g>
</g>
</svg>
