<svg height="512pt" viewBox="0 0 512 512" width="512pt" xmlns="http://www.w3.org/2000/svg"><path d="m512 256c0 141.386719-114.613281 256-256 256s-256-114.613281-256-256 114.613281-256 256-256 256 114.613281 256 256zm0 0" fill="#857e87"/><path d="m478.96875 256c0 58.4375-22.480469 111.621094-59.265625 151.382812-40.730469 44.023438-99 67.617188-163.703125 67.617188-123.140625 0-218.5-95.859375-218.5-219 0-64.640625 23.039062-122.859375 66.988281-163.582031 39.773438-36.855469 93.011719-59.386719 151.511719-59.386719 123.140625 0 222.96875 99.828125 222.96875 222.96875zm0 0" fill="#6f6571"/><path d="m412.902344 256c0 86.65625-70.246094 156.902344-156.902344 156.902344s-156.902344-70.246094-156.902344-156.902344 70.246094-156.902344 156.902344-156.902344 156.902344 70.246094 156.902344 156.902344zm0 0" fill="#5d5360"/><g fill="#dad8db"><path d="m305.554688 80.898438c-.714844 0-1.433594-.09375-2.160157-.289063-30.917969-8.339844-63.871093-8.339844-94.789062 0-4.402344 1.171875-8.925781-1.40625-10.128907-5.824219-1.1875-4.402344 1.417969-8.933594 5.824219-10.121094 33.738281-9.105468 69.660157-9.105468 103.402344 0 4.402344 1.1875 7.007813 5.71875 5.820313 10.121094-1 3.6875-4.328126 6.113282-7.96875 6.113282zm0 0"/><path d="m390.007812 398.84375c-2.121093 0-4.242187-.8125-5.855468-2.433594-3.21875-3.230468-3.203125-8.457031.03125-11.675781 22.816406-22.71875 39.210937-51.097656 47.414062-82.070313 1.175782-4.410156 5.699219-7.003906 10.09375-5.867187 4.414063 1.167969 7.042969 5.6875 5.871094 10.09375-8.949219 33.804687-26.835938 64.765625-51.734375 89.546875-1.601563 1.601562-3.714844 2.40625-5.820313 2.40625zm0 0"/><path d="m121.992188 398.84375c-2.105469 0-4.21875-.804688-5.824219-2.40625-24.894531-24.78125-42.78125-55.742188-51.734375-89.546875-1.167969-4.40625 1.460937-8.925781 5.871094-10.09375 4.414062-1.144531 8.929687 1.457031 10.097656 5.867187 8.203125 30.972657 24.597656 59.351563 47.410156 82.070313 3.234375 3.21875 3.25 8.445313.035156 11.675781-1.613281 1.621094-3.734375 2.433594-5.855468 2.433594zm0 0"/></g><path d="m256 90.839844c-91.074219 0-165.160156 74.09375-165.160156 165.160156s74.085937 165.160156 165.160156 165.160156 165.160156-74.089844 165.160156-165.160156-74.085937-165.160156-165.160156-165.160156zm85.257812 286.734375c-23.65625 16.640625-52.320312 26.558593-83.277343 26.972656 8.210937-5.84375 16.015625-12.339844 23.292969-19.617187 29.460937-29.457032 47.554687-67.960938 52.152343-108.566407.378907-3.347656 5.046875-3.808593 6.140625-.621093 5.851563 17.066406 8.957032 35.148437 8.957032 53.554687 0 16.621094-2.511719 32.75-7.265626 48.277344zm-71.660156-4.324219c-11.761718 11.761719-24.960937 21.394531-39.308594 29.015625-29.96875-5.257813-56.871093-19.441406-77.8125-39.8125 9.902344 1.660156 19.976563 2.582031 30.234376 2.582031 38.140624 0 74.988281-12.179687 105.519531-33.820312.101562-.0625.1875-.136719.285156-.199219 2.679687-1.90625 5.308594-3.882813 7.886719-5.929687 2.636718-2.09375 6.257812.878906 4.777344 3.902343-7.933594 16.21875-18.535157 31.214844-31.582032 44.261719zm-98.855468-238.824219c23.65625-16.640625 52.320312-26.558593 83.277343-26.972656-8.210937 5.84375-16.015625 12.339844-23.292969 19.617187-29.421874 29.417969-47.542968 67.96875-52.15625 108.589844-.378906 3.347656-5.046874 3.804688-6.136718.617188-5.855469-17.066406-8.957032-35.15625-8.957032-53.574219 0-16.617187 2.511719-32.75 7.265626-48.277344zm71.660156 4.324219c11.761718-11.761719 24.960937-21.394531 39.308594-29.015625 29.96875 5.257813 56.871093 19.441406 77.8125 39.8125-9.902344-1.660156-19.976563-2.582031-30.234376-2.582031-41.640624 0-81.671874 14.433594-113.636718 39.886718-2.636719 2.101563-6.261719-.875-4.78125-3.902343 7.929687-16.207031 18.519531-31.183594 31.53125-44.199219zm-6.496094 194.566406c3.347656.375 3.816406 5.042969.628906 6.140625-17.148437 5.917969-35.320312 9.0625-53.824218 9.0625-16.621094 0-32.757813-2.511719-48.285157-7.265625-16.640625-23.652344-26.558593-52.3125-26.96875-83.265625 5.839844 8.207031 12.335938 16.007813 19.617188 23.285157 29.507812 29.507812 68.132812 47.511718 108.832031 52.042968zm26.726562-155.78125c20.773438-9.136718 43.445313-14.054687 66.65625-14.054687 16.621094 0 32.757813 2.511719 48.285157 7.265625 16.640625 23.652344 26.558593 52.3125 26.96875 83.269531-5.84375-8.210937-12.339844-16.011719-19.617188-23.289063-32.730469-32.734374-76.714843-51.460937-122.292969-53.191406zm-113.089843-25.054687c-1.660157 9.902343-2.582031 19.972656-2.582031 30.226562 0 41.625 14.441406 81.683594 39.910156 113.664063 2.097656 2.636718-.878906 6.261718-3.90625 4.78125-16.203125-7.933594-31.1875-18.527344-44.214844-31.554688-11.761719-11.761718-21.394531-24.957031-29.015625-39.304687 5.257813-29.96875 19.4375-56.867188 39.808594-77.8125zm212.917969 207.039062c1.660156-9.902343 2.578124-19.972656 2.578124-30.222656 0-38.078125-12.132812-74.855469-33.691406-105.351563-.289062-.546874-.648437-1.011718-1.042968-1.472656-1.671876-2.316406-3.398438-4.597656-5.175782-6.835937-2.109375-2.652344.832032-6.292969 3.875-4.804688 16.21875 7.933594 31.210938 18.535157 44.246094 31.570313 11.761719 11.761718 21.394531 24.957031 29.015625 39.304687-5.257813 29.96875-19.4375 56.867188-39.804687 77.8125zm0 0" fill="#4b3f4e"/><path d="m268.386719 466.582031c-123.140625 0-222.96875-99.828125-222.96875-222.96875 0-58.417969 22.46875-111.59375 59.234375-151.347656-44.046875 40.730469-71.621094 99.011719-71.621094 163.734375 0 123.140625 99.828125 222.96875 222.96875 222.96875 64.722656 0 123.003906-27.578125 163.734375-71.621094-39.753906 36.765625-92.929687 59.234375-151.347656 59.234375zm0 0" fill="#5d5360"/></svg>